<svg height="512pt" viewBox="-37 0 511 512" width="512pt" xmlns="http://www.w3.org/2000/svg"><path d="m388.789062 471.386719c-27.300781 0-49.511718-22.210938-49.511718-49.507813v-159.03125c0-10.222656-8.316406-18.542968-18.542969-18.542968h-34.027344v-30.964844h34.027344c27.300781 0 49.507813 22.210937 49.507813 49.507812v159.03125c0 10.222656 8.320312 18.542969 18.546874 18.542969 10.222657 0 18.542969-8.320313 18.542969-18.542969v-197.871094h30.964844v197.871094c0 27.296875-22.207031 49.507813-49.507813 49.507813zm0 0" fill="#23272b"/><path d="m286.707031 94.292969h82.046875v30.96875h-82.046875zm0 0" fill="#23272b"/><path d="m368.75 94.292969c-8.550781 0-15.480469 6.933593-15.480469 15.484375v60.167968c0 38.34375 31.195313 69.542969 69.546875 69.542969 8.550782 0 15.480469-6.929687 15.480469-15.480469v-60.167968c0-38.347656-31.195313-69.546875-69.546875-69.546875zm0 0" fill="#ff3da8"/><path d="m286.707031 512h-270.722656c-8.550781 0-15.484375-6.933594-15.484375-15.484375v-447.917969c0-26.796875 21.800781-48.597656 48.597656-48.597656h204.496094c26.796875 0 48.597656 21.800781 48.597656 48.597656v447.917969c0 8.550781-6.933594 15.484375-15.484375 15.484375zm0 0" fill="#ff7d81"/><path d="m253.59375 0h-102.25v512h135.363281c8.550781 0 15.484375-6.933594 15.484375-15.484375v-447.917969c0-26.796875-21.800781-48.597656-48.597656-48.597656zm0 0" fill="#ff3da8"/><path d="m233.277344 201.96875h-163.859375c-8.550781 0-15.484375-6.933594-15.484375-15.480469v-120.40625c0-8.550781 6.933594-15.484375 15.484375-15.484375h163.859375c8.550781 0 15.484375 6.933594 15.484375 15.484375v120.40625c0 8.546875-6.929688 15.480469-15.484375 15.480469zm0 0" fill="#a5f6ff"/><path d="m233.277344 50.597656h-81.933594v151.371094h81.933594c8.550781 0 15.484375-6.933594 15.484375-15.480469v-120.40625c0-8.550781-6.929688-15.484375-15.484375-15.484375zm0 0" fill="#38ebff"/><path d="m151.347656 421.15625c-29.4375 0-53.386718-23.949219-53.386718-53.390625 0-23.007813 30.402343-81.917969 39.71875-99.425781 2.6875-5.050782 7.945312-8.207032 13.667968-8.207032s10.976563 3.15625 13.667969 8.207032c9.316406 17.507812 39.71875 76.417968 39.71875 99.425781 0 29.4375-23.949219 53.390625-53.386719 53.390625zm0 0" fill="#a5f6ff"/><path d="m151.347656 260.132812s0 0-.003906 0v161.023438h.003906c29.4375 0 53.386719-23.949219 53.386719-53.390625 0-23.007813-30.402344-81.917969-39.71875-99.425781-2.6875-5.050782-7.945313-8.207032-13.667969-8.207032zm0 0" fill="#38ebff"/></svg>